<svg xmlns="http://www.w3.org/2000/svg" version="1.1" xmlns:xlink="http://www.w3.org/1999/xlink" width="512" height="512" x="0" y="0" viewBox="0 0 512 512" style="enable-background:new 0 0 512 512" xml:space="preserve" class=""><g><path d="M361.9 0H150.1c-22.8 0-41.4 18.6-41.4 41.4v402.2c0 18.8 12.6 34.7 29.7 39.7v12.1c0 9.1 7.4 16.5 16.5 16.5h37.9c9.1 0 16.5-7.4 16.5-16.5V485h93.3v10.4c0 9.1 7.4 16.5 16.5 16.5H357c9.1 0 16.5-7.4 16.5-16.5v-12.1c17.2-5.1 29.7-20.9 29.7-39.7V41.4C403.3 18.6 384.7 0 361.9 0zM150.1 16h211.7c14 0 25.4 11.4 25.4 25.4v143.3H124.7V41.4c0-14 11.4-25.4 25.4-25.4zm43.3 479.5c0 .3-.3.5-.5.5H155c-.3 0-.5-.3-.5-.5V485h38.9zm163.6.5h-37.9c-.3 0-.5-.3-.5-.5V485h38.9v10.4c.1.3-.2.6-.5.6zm4.9-27H150.1c-14 0-25.4-11.4-25.4-25.4V200.7h262.6v242.9c0 14-11.4 25.4-25.4 25.4z" fill="#388443" opacity="1" data-original="#000000" class=""></path><path d="M155.5 154.6h16.3c6.4 0 11.7-5.2 11.7-11.7V57.8c0-6.4-5.2-11.7-11.7-11.7h-16.3c-6.4 0-11.7 5.2-11.7 11.7V143c.1 6.4 5.3 11.6 11.7 11.6zm4.4-92.5h7.6v76.5h-7.6zM171.8 230.8h-16.3c-6.4 0-11.7 5.2-11.7 11.7v109.1c0 6.4 5.2 11.7 11.7 11.7h16.3c6.4 0 11.7-5.2 11.7-11.7V242.4c0-6.4-5.3-11.6-11.7-11.6zm-4.3 116.4h-7.6V246.8h7.6z" fill="#388443" opacity="1" data-original="#000000" class=""></path></g></svg>