<svg xmlns="http://www.w3.org/2000/svg" version="1.1" xmlns:xlink="http://www.w3.org/1999/xlink" width="512" height="512" x="0" y="0" viewBox="0 0 511.996 511.996" style="enable-background:new 0 0 512 512" xml:space="preserve" class=""><g><path d="M365.529 85.166h32.938a45.909 45.909 0 0 1 41.062 25.378l4.934 9.868c6.175 12.349-2.805 26.879-16.612 26.879H7.5v-31.062h248.498l31.062-31.062h45.782M17.504 364.726V147.29" style="stroke-width:15;stroke-linecap:round;stroke-linejoin:round;stroke-miterlimit:10;" fill="none" stroke="#388443" stroke-width="15" stroke-linecap="round" stroke-linejoin="round" stroke-miterlimit="10" data-original="#000000" class="" opacity="1"></path><path d="M318.123 364.726V147.29h93.187l38.828 93.187 32.002 10.668a21.34 21.34 0 0 1 14.591 20.245v93.336" style="stroke-width:15;stroke-linecap:round;stroke-linejoin:round;stroke-miterlimit:10;" fill="none" stroke="#388443" stroke-width="15" stroke-linecap="round" stroke-linejoin="round" stroke-miterlimit="10" data-original="#000000" class="" opacity="1"></path><path d="M450.137 240.477H349.186v-62.125h75.066M72.289 395.788H14.5a7 7 0 0 1-7-7v-17.062a7 7 0 0 1 7-7h57.789M242.505 395.788h-82.362M351.84 395.788h-76.649M439.707 364.726h57.789a7 7 0 0 1 7 7v17.062a7 7 0 0 1-7 7h-57.789M160.254 364.726H351.85M496.731 333.664h-31.548v-50.008h31.548M17.504 283.656h31.547v50.008H17.504M287.06 364.726V178.352h-93.186v186.374M99.875 240.477H49.601v-62.125h113.21v62.125h-30.25" style="stroke-width:15;stroke-linecap:round;stroke-linejoin:round;stroke-miterlimit:10;" fill="none" stroke="#388443" stroke-width="15" stroke-linecap="round" stroke-linejoin="round" stroke-miterlimit="10" data-original="#000000" class="" opacity="1"></path><circle cx="116.218" cy="380.237" r="46.593" style="stroke-width:15;stroke-linecap:round;stroke-linejoin:round;stroke-miterlimit:10;" fill="none" stroke="#388443" stroke-width="15" stroke-linecap="round" stroke-linejoin="round" stroke-miterlimit="10" data-original="#000000" class="" opacity="1"></circle><circle cx="116.218" cy="380.237" r="15.531" style="stroke-width:15;stroke-linecap:round;stroke-linejoin:round;stroke-miterlimit:10;" fill="none" stroke="#388443" stroke-width="15" stroke-linecap="round" stroke-linejoin="round" stroke-miterlimit="10" data-original="#000000" class="" opacity="1"></circle><circle cx="395.778" cy="380.237" r="46.593" style="stroke-width:15;stroke-linecap:round;stroke-linejoin:round;stroke-miterlimit:10;" fill="none" stroke="#388443" stroke-width="15" stroke-linecap="round" stroke-linejoin="round" stroke-miterlimit="10" data-original="#000000" class="" opacity="1"></circle><circle cx="395.778" cy="380.237" r="15.531" style="stroke-width:15;stroke-linecap:round;stroke-linejoin:round;stroke-miterlimit:10;" fill="none" stroke="#388443" stroke-width="15" stroke-linecap="round" stroke-linejoin="round" stroke-miterlimit="10" data-original="#000000" class="" opacity="1"></circle><path d="M38.562 116.228V85.166H147.28v31.062M349.186 271.539h23.428" style="stroke-width:15;stroke-linecap:round;stroke-linejoin:round;stroke-miterlimit:10;" fill="none" stroke="#388443" stroke-width="15" stroke-linecap="round" stroke-linejoin="round" stroke-miterlimit="10" data-original="#000000" class="" opacity="1"></path></g></svg>