<svg xmlns="http://www.w3.org/2000/svg" version="1.1" xmlns:xlink="http://www.w3.org/1999/xlink" width="512" height="512" x="0" y="0" viewBox="0 0 64 64" style="enable-background:new 0 0 512 512" xml:space="preserve" class=""><g><path d="M52.559 14.117a1 1 0 0 0-.725.635l-2.15 5.908-2.552.654-1.541-2.153 2.149-5.897a.999.999 0 0 0-.145-.949 1.012 1.012 0 0 0-.877-.391 8.497 8.497 0 0 0-7.271 5.565 8.497 8.497 0 0 0 1.231 8.097l-3.039 8.327h-8.91c-.701-1.832-1.388-3.435-2.051-4.787.226-.169.433-.365.6-.604a2.697 2.697 0 0 0 .45-2.025 2.686 2.686 0 0 0-1.108-1.744 2.688 2.688 0 0 0-2.018-.449l-.185.032-2.168-12.355.901-.158a1.002 1.002 0 0 0 .775-1.306l-2.65-7.838a1.002 1.002 0 0 0-1.12-.665l-4.437.778a1.002 1.002 0 0 0-.827 1.007l.175 8.272c.007.291.14.565.365.751s.52.261.808.213l.901-.158 2.167 12.354-.185.032a2.704 2.704 0 0 0-.32 5.249 54.428 54.428 0 0 0-.244 3.399h-6.969a1 1 0 0 0-1 1v20.135a6.96 6.96 0 0 0 6.952 6.952h28.784a6.96 6.96 0 0 0 6.952-6.952V34.911a1 1 0 0 0-1-1h-4.87l1.888-5.186a8.526 8.526 0 0 0 6.158-5.406v-.003a8.57 8.57 0 0 0-1.975-8.93 1 1 0 0 0-.924-.271zm-33.618-2.57a1.004 1.004 0 0 0-1.158-.813l-.738.13-.133-6.249 2.746-.482 2.003 5.922-.739.129a1.004 1.004 0 0 0-.813 1.158l2.341 13.34-.584.103-.584.102-2.34-13.34zm.53 15.688 1.169-.205 1.57-.275 2.74-.48a.695.695 0 0 1 .809.568.713.713 0 0 1-.118.531.687.687 0 0 1-.449.286l-5.479.962a.675.675 0 0 1-.521-.118.704.704 0 0 1 .278-1.269zm1.351 3.224.064-.011 3.888-.678a52.948 52.948 0 0 1 1.817 4.144h-2.113l-.044-.254a.993.993 0 0 0-1.968.254H20.56c.055-1.25.144-2.42.262-3.454zm30.459 24.589A4.958 4.958 0 0 1 46.329 60H17.544a4.958 4.958 0 0 1-4.952-4.952V42.716h3.669v3.608a1 1 0 0 0 1 1h4.965a1 1 0 0 0 1-1v-3.608h17.432v3.608a1 1 0 0 0 1 1h4.955a1 1 0 0 0 1-1v-3.608h3.668zM21.226 41.716v3.608h-2.965v-5.726h2.965v2.117zm24.387 0v3.608h-2.955v-5.726h2.955v2.117zm5.668-1h-3.668v-2.117a1 1 0 0 0-1-1h-4.955a1 1 0 0 0-1 1v2.117H23.226v-2.117a1 1 0 0 0-1-1h-4.965a1 1 0 0 0-1 1v2.117h-3.669v-4.803H51.28v4.803zm2.297-18.081a6.525 6.525 0 0 1-5.17 4.225 1.001 1.001 0 0 0-.793.647l-2.332 6.406h-1.692l1.872-5.134a1 1 0 1 0-1.879-.685l-2.122 5.819H39.77l2.984-8.178a.999.999 0 0 0-.19-1.005 6.502 6.502 0 0 1-1.236-6.557 6.501 6.501 0 0 1 3.917-3.901l-1.713 4.699c-.113.311-.065.656.126.925l2.246 3.139a1 1 0 0 0 1.062.387l3.727-.955a.996.996 0 0 0 .691-.627l1.708-4.695a6.566 6.566 0 0 1 .486 5.49z" fill="#388443" opacity="1" data-original="#000000" class=""></path></g></svg>